<svg xmlns="http://www.w3.org/2000/svg" width="32" height="32" viewBox="0 0 32 32">
  <rect width="32" height="32" rx="6" fill="#f97316"/>
  <g fill="white">
    <!-- Fork -->
    <path d="M11 4v8c0 1.5-1 2-2 2v2h2v8c0 .5.5 1 1 1s1-.5 1-1v-8h2v-2c-1 0-2-.5-2-2V4h-1z"/>
    <rect x="10.5" y="4" width="1" height="6" rx="0.5"/>
    <rect x="12.5" y="4" width="1" height="6" rx="0.5"/>
    
    <!-- Knife -->
    <path d="M20 4v11c0 1.5-1 2-1 2v2h2v5c0 .5.5 1 1 1s1-.5 1-1v-5h2v-2c0 0-1-.5-1-2V4h-3z"/>
    <path d="M20 4h3v10c0 1-.5 1.5-1.5 1.5S20 15 20 14V4z" fill="white"/>
  </g>
</svg>